<?xml version="1.0" encoding="UTF-8"?>
<svg version="1.1" xmlns="http://www.w3.org/2000/svg" width="200" height="200">
<path d="M0 0 C1.05574219 0.37382812 2.11148438 0.74765625 3.19921875 1.1328125 C26.30186765 10.06623115 44.14687129 26.810307 55 49 C63.85179162 70.03708237 65.86798453 95.30789312 58 117 C57.57589844 118.19238281 57.15179688 119.38476562 56.71484375 120.61328125 C47.80065688 143.33328401 29.98481676 160.86048799 8.06201172 171.12744141 C-13.02349822 180.04996242 -39.37859388 181.84833959 -61 174 C-62.05574219 173.62617188 -63.11148438 173.25234375 -64.19921875 172.8671875 C-87.30186765 163.93376885 -105.14687129 147.189693 -116 125 C-124.85179162 103.96291763 -126.86798453 78.69210688 -119 57 C-118.57589844 55.80761719 -118.15179688 54.61523438 -117.71484375 53.38671875 C-108.80065688 30.66671599 -90.98481676 13.13951201 -69.06201172 2.87255859 C-47.97650178 -6.04996242 -21.62140612 -7.84833959 0 0 Z " fill="#FCFCFC" transform="translate(131,13)"/>
<path d="M0 0 C1.05574219 0.37382812 2.11148438 0.74765625 3.19921875 1.1328125 C26.30186765 10.06623115 44.14687129 26.810307 55 49 C63.85179162 70.03708237 65.86798453 95.30789312 58 117 C57.57589844 118.19238281 57.15179688 119.38476562 56.71484375 120.61328125 C47.80065688 143.33328401 29.98481676 160.86048799 8.06201172 171.12744141 C-13.02349822 180.04996242 -39.37859388 181.84833959 -61 174 C-62.05574219 173.62617188 -63.11148438 173.25234375 -64.19921875 172.8671875 C-87.30186765 163.93376885 -105.14687129 147.189693 -116 125 C-124.85179162 103.96291763 -126.86798453 78.69210688 -119 57 C-118.57589844 55.80761719 -118.15179688 54.61523438 -117.71484375 53.38671875 C-108.80065688 30.66671599 -90.98481676 13.13951201 -69.06201172 2.87255859 C-47.97650178 -6.04996242 -21.62140612 -7.84833959 0 0 Z M-93.55859375 37.90625 C-107.76247502 55.72697118 -111.58398686 75.60897895 -110 98 C-109.14554634 105.10702964 -107.41918425 111.439816 -104.4375 117.9375 C-104.08816406 118.70819824 -103.73882812 119.47889648 -103.37890625 120.27294922 C-93.64720849 140.94849326 -76.51959204 153.90873656 -55.71875 162.328125 C-38.18891573 168.03738295 -16.95305889 167.17985559 0 160 C0.62148926 159.74299316 1.24297852 159.48598633 1.88330078 159.22119141 C10.72265674 155.46256158 17.9180104 150.43290381 25 144 C25.63292969 143.45988281 26.26585937 142.91976562 26.91796875 142.36328125 C39.70202535 130.74939002 47.9818382 112.15770478 49.20336914 95.17211914 C50.04907764 70.68472478 44.38644267 51.42500742 28.0703125 32.796875 C13.63567793 17.60862497 -6.0070829 9.12758865 -26.76953125 8.47802734 C-54.22216224 8.16400193 -75.39085813 17.26992129 -93.55859375 37.90625 Z " fill="#333333" transform="translate(131,13)"/>
<path d="M0 0 C1.26863388 -0.00642769 1.26863388 -0.00642769 2.56289673 -0.01298523 C4.34986477 -0.01872068 6.13685615 -0.01923457 7.92382812 -0.01489258 C10.64754435 -0.01173788 13.3701684 -0.0351826 16.09375 -0.06054688 C17.83333197 -0.06282059 19.57291685 -0.06352303 21.3125 -0.0625 C22.12206146 -0.07170975 22.93162292 -0.08091949 23.76571655 -0.09040833 C29.94182692 -0.04028137 33.9759557 1.17050311 38.63964844 5.46557617 C40.81750929 9.20913717 40.79417376 12.45849524 40.6796875 16.6640625 C40.67565918 17.36672241 40.67163086 18.06938232 40.66748047 18.79333496 C40.64666451 21.40025207 40.59081894 24.00679484 40.5390625 26.61328125 C40.4565625 32.45015625 40.3740625 38.28703125 40.2890625 44.30078125 C21.1490625 44.30078125 2.0090625 44.30078125 -17.7109375 44.30078125 C-17.8140625 38.48453125 -17.9171875 32.66828125 -18.0234375 26.67578125 C-18.06895752 24.85095215 -18.11447754 23.02612305 -18.16137695 21.14599609 C-18.1759926 19.68458896 -18.18873073 18.22316133 -18.19921875 16.76171875 C-18.22479858 16.01510986 -18.25037842 15.26850098 -18.2767334 14.49926758 C-18.2800061 10.54453796 -17.92031084 8.05155376 -15.43041992 4.89697266 C-10.4390146 0.13185871 -6.78121934 -0.00759634 0 0 Z " fill="#323232" transform="translate(88.7109375,106.69921875)"/>
<path d="M0 0 C0.99033234 0.00636726 0.99033234 0.00636726 2.00067139 0.01286316 C4.09982891 0.0295944 6.19800996 0.06723324 8.296875 0.10546875 C9.72394442 0.12052291 11.15102896 0.13421004 12.578125 0.14648438 C16.06802317 0.17947874 19.5573537 0.23122132 23.046875 0.29296875 C23.33365112 1.31269775 23.33365112 1.31269775 23.6262207 2.35302734 C23.88491943 3.24844238 24.14361816 4.14385742 24.41015625 5.06640625 C24.78974487 6.39551025 24.78974487 6.39551025 25.17700195 7.75146484 C26.32324291 11.10043156 27.90867059 13.49118366 30.046875 16.29296875 C29.17804688 16.37933594 28.30921875 16.46570313 27.4140625 16.5546875 C20.43170048 17.40600457 15.83449988 17.97338555 11.046875 23.29296875 C9.5660902 26.25453835 9.69373463 29.1280317 9.484375 32.41796875 C9.2678125 35.82109375 9.2678125 35.82109375 9.046875 39.29296875 C1.126875 39.29296875 -6.793125 39.29296875 -14.953125 39.29296875 C-15.04531073 35.12924677 -15.12482466 30.96910791 -15.17285156 26.80517578 C-15.19288343 25.3909908 -15.22011748 23.97688778 -15.25488281 22.56298828 C-15.30377989 20.52225456 -15.32617623 18.48262185 -15.34375 16.44140625 C-15.36469727 15.21599121 -15.38564453 13.99057617 -15.40722656 12.72802734 C-14.75443452 7.78997137 -12.56275691 4.93918321 -9.13769531 1.4362793 C-6.02203395 -0.19432443 -3.50144525 -0.0445099 0 0 Z " fill="#373737" transform="translate(57.953125,87.70703125)"/>
<path d="M0 0 C4.2290362 -0.08725659 8.45784012 -0.1404789 12.6875 -0.1875 C13.88568359 -0.21263672 15.08386719 -0.23777344 16.31835938 -0.26367188 C17.47529297 -0.27333984 18.63222656 -0.28300781 19.82421875 -0.29296875 C20.88729248 -0.3086792 21.95036621 -0.32438965 23.0456543 -0.34057617 C27.6338887 0.18835425 30.03427148 2.05745638 33.28808594 5.2331543 C35.49223789 8.79556931 35.45926035 11.09993372 35.390625 15.26953125 C35.38496521 15.95053391 35.37930542 16.63153656 35.37347412 17.33317566 C35.35120481 19.49368645 35.30103318 21.65249646 35.25 23.8125 C35.22992247 25.28317905 35.21167389 26.75388429 35.1953125 28.22460938 C35.15478268 31.81757757 35.07649412 35.40690109 35 39 C27.41 39 19.82 39 12 39 C11.8125 31.8125 11.8125 31.8125 11.79223633 29.57739258 C11.61070977 25.72580481 11.06887171 24.08329452 8.59375 21.08984375 C3.68314482 17.13325674 -0.89077313 16.62127731 -7 16 C-6.57847656 15.34773438 -6.15695313 14.69546875 -5.72265625 14.0234375 C-4.90087891 12.71246094 -4.90087891 12.71246094 -4.0625 11.375 C-3.51722656 10.51648438 -2.97195312 9.65796875 -2.41015625 8.7734375 C-0.89576439 5.79499367 -0.47863466 3.28490344 0 0 Z " fill="#373737" transform="translate(120,88)"/>
<path d="M0 0 C5.67458978 1.92721917 9.32050871 5.64101742 12 11 C12.53903766 17.25283687 11.85550269 21.90639221 8 27 C4.30931661 30.44074998 0.55672296 32.29312526 -4.5 32.625 C-9.55672296 32.29312526 -13.30931661 30.44074998 -17 27 C-20.81049685 21.96585063 -21.79882187 17.19086946 -21 11 C-16.15380187 1.66658137 -9.93452154 -0.82660118 0 0 Z " fill="#353535" transform="translate(105,73)"/>
<path d="M0 0 C3.79259576 2.04216695 7.00344184 4.11780358 9 8 C9.54819106 13.02508472 9.0345498 15.9539336 6 20 C3.06904376 23.41944895 0.70823406 23.93033763 -3.8125 24.375 C-7.06504073 24.33906032 -8.83212381 23.78680009 -11.375 21.75 C-14.59304578 18.37871394 -15.7772529 16.70772777 -16.375 12.125 C-15.78146428 7.17886897 -13.50741708 4.22223006 -9.6875 1.125 C-6.16108808 -0.35117243 -3.79611 -0.46618895 0 0 Z " fill="#353535" transform="translate(71,60)"/>
<path d="M0 0 C4.30619632 2.23590963 7.26400997 4.40473228 9 9 C9.29681245 13.93787985 8.72559219 17.08346249 5.625 21 C1.89528047 23.84169107 -1.25966288 24.40320814 -5.93359375 24.3515625 C-10.2838663 23.61144052 -12.88167961 20.5758151 -15.375 17.0625 C-16.70972626 12.65790333 -16.4740789 9.89548236 -14.3125 5.8125 C-10.09702761 0.68557412 -6.66730668 -0.81879205 0 0 Z " fill="#353535" transform="translate(133,60)"/>
</svg>
